<?xml version="1.0" encoding="UTF-8" standalone="no"?>
<!-- Created with Inkscape (http://www.inkscape.org/) -->

<svg
   width="48"
   height="16"
   viewBox="0 0 48 16"
   version="1.1"
   id="svg1"
   inkscape:version="1.4.2 (ebf0e940d0, 2025-05-08)"
   sodipodi:docname="bbm-dsse-symbolic.svg"
   xmlns:inkscape="http://www.inkscape.org/namespaces/inkscape"
   xmlns:sodipodi="http://sodipodi.sourceforge.net/DTD/sodipodi-0.dtd"
   xmlns="http://www.w3.org/2000/svg"
   xmlns:svg="http://www.w3.org/2000/svg">
  <sodipodi:namedview
     id="namedview1"
     pagecolor="#ffffff"
     bordercolor="#000000"
     borderopacity="0.25"
     inkscape:showpageshadow="2"
     inkscape:pageopacity="0.0"
     inkscape:pagecheckerboard="true"
     inkscape:deskcolor="#d1d1d1"
     inkscape:document-units="px"
     inkscape:zoom="23.959117"
     inkscape:cx="23.853133"
     inkscape:cy="7.9719132"
     inkscape:window-width="2560"
     inkscape:window-height="1371"
     inkscape:window-x="0"
     inkscape:window-y="32"
     inkscape:window-maximized="1"
     inkscape:current-layer="layer1" />
  <defs
     id="defs1" />
  <g
     inkscape:label="Layer 1"
     inkscape:groupmode="layer"
     id="layer1">
    <path
       id="rect1"
       style="fill:#000000"
       d="M 2.46875 0.041015625 C 1.1467914 0.041015625 0.083984375 1.1057758 0.083984375 2.4277344 L 0.083984375 13.599609 C 0.083984375 14.921568 1.1467914 15.986328 2.46875 15.986328 L 45.570312 15.986328 C 46.892271 15.986328 47.957031 14.921568 47.957031 13.599609 L 47.957031 2.4277344 C 47.957031 1.1057758 46.892271 0.041015625 45.570312 0.041015625 L 2.46875 0.041015625 z M 20.433594 1.7832031 C 21.298141 1.7832031 21.981728 2.1329011 22.486328 2.8320312 C 22.994292 3.5311614 23.261608 4.4956697 23.285156 5.7246094 L 21.830078 5.7246094 C 21.803166 5.1456423 21.666905 4.6886479 21.417969 4.3554688 C 21.169033 4.0222896 20.84118 3.8554688 20.4375 3.8554688 C 20.054004 3.8554687 19.739713 3.9972284 19.494141 4.28125 C 19.251933 4.5652716 19.130859 4.9286755 19.130859 5.3710938 C 19.130859 5.7479686 19.231754 6.0518479 19.433594 6.28125 C 19.635434 6.5106521 19.966867 6.7072351 20.427734 6.8710938 L 21.150391 7.125 C 21.951022 7.4035597 22.53621 7.8217869 22.90625 8.3789062 C 23.279654 8.9305636 23.466797 9.664423 23.466797 10.582031 C 23.466797 11.756351 23.199481 12.684443 22.667969 13.367188 C 22.136457 14.04447 21.409475 14.384766 20.484375 14.384766 C 19.522271 14.384766 18.770662 14.014708 18.232422 13.277344 C 17.697546 12.53998 17.431641 11.508895 17.431641 10.181641 L 18.929688 10.181641 C 18.939779 10.853461 19.083527 11.377031 19.359375 11.753906 C 19.635223 12.125319 20.013089 12.310547 20.494141 12.310547 C 20.924732 12.310547 21.270811 12.168787 21.533203 11.884766 C 21.795595 11.600744 21.927734 11.221284 21.927734 10.746094 C 21.927734 10.352833 21.821307 10.032897 21.609375 9.7871094 C 21.400807 9.5413214 21.057766 9.3333831 20.580078 9.1640625 L 19.787109 8.8867188 C 18.313678 8.3678331 17.578125 7.2365039 17.578125 5.4941406 C 17.578125 4.7513149 17.696703 4.1043917 17.935547 3.5527344 C 18.174391 2.9956151 18.508319 2.5613314 18.935547 2.25 C 19.362775 1.9386686 19.861714 1.7832031 20.433594 1.7832031 z M 9.7792969 1.9804688 L 12.464844 1.9804688 C 13.218379 1.9804688 13.870179 2.2275716 14.421875 2.7246094 C 14.973571 3.2216472 15.399823 3.9276974 15.699219 4.8398438 C 15.998615 5.7519901 16.148438 6.8308464 16.148438 8.0761719 C 16.148438 9.3269593 15.998615 10.410517 15.699219 11.328125 C 15.399823 12.240271 14.971075 12.944368 14.416016 13.441406 C 13.86432 13.938444 13.203949 14.1875 12.433594 14.1875 L 9.7792969 14.1875 L 9.7792969 1.9804688 z M 24.992188 1.9804688 L 30.384766 1.9804688 L 30.384766 4.1425781 L 26.544922 4.1425781 L 26.544922 6.96875 L 30.097656 6.96875 L 30.097656 9.0742188 L 26.544922 9.0742188 L 26.544922 12.023438 L 30.384766 12.023438 L 30.384766 14.1875 L 24.992188 14.1875 L 24.992188 1.9804688 z M 31.886719 1.9804688 L 37.28125 1.9804688 L 37.28125 4.1425781 L 33.439453 4.1425781 L 33.439453 6.96875 L 36.992188 6.96875 L 36.992188 9.0742188 L 33.439453 9.0742188 L 33.439453 12.023438 L 37.28125 12.023438 L 37.28125 14.1875 L 31.886719 14.1875 L 31.886719 1.9804688 z M 11.333984 4.1015625 L 11.333984 12.064453 L 12.353516 12.064453 C 13.113779 12.064453 13.675751 11.721409 14.039062 11.033203 C 14.402374 10.344997 14.583984 9.3597311 14.583984 8.0761719 C 14.583984 6.7926127 14.399879 5.8077442 14.033203 5.125 C 13.669891 4.4422558 13.113995 4.1015625 12.367188 4.1015625 L 11.333984 4.1015625 z " />
  </g>
</svg>
