<?xml version="1.0" encoding="UTF-8" standalone="no"?>
<!-- Created with Inkscape (http://www.inkscape.org/) -->

<svg
   width="48"
   height="16"
   viewBox="0 0 48 16"
   version="1.1"
   id="svg1"
   inkscape:version="1.4.2 (ebf0e940d0, 2025-05-08)"
   sodipodi:docname="bbm-sbc-symbolic.svg"
   xmlns:inkscape="http://www.inkscape.org/namespaces/inkscape"
   xmlns:sodipodi="http://sodipodi.sourceforge.net/DTD/sodipodi-0.dtd"
   xmlns="http://www.w3.org/2000/svg"
   xmlns:svg="http://www.w3.org/2000/svg">
  <sodipodi:namedview
     id="namedview1"
     pagecolor="#ffffff"
     bordercolor="#000000"
     borderopacity="0.25"
     inkscape:showpageshadow="2"
     inkscape:pageopacity="0.0"
     inkscape:pagecheckerboard="true"
     inkscape:deskcolor="#d1d1d1"
     inkscape:document-units="px"
     inkscape:zoom="23.959117"
     inkscape:cx="23.853133"
     inkscape:cy="7.9719132"
     inkscape:window-width="2560"
     inkscape:window-height="1371"
     inkscape:window-x="0"
     inkscape:window-y="32"
     inkscape:window-maximized="1"
     inkscape:current-layer="layer1" />
  <defs
     id="defs1" />
  <g
     inkscape:label="Layer 1"
     inkscape:groupmode="layer"
     id="layer1">
    <path
       id="rect1"
       style="fill:#000000"
       d="M 2.46875 0.041015625 C 1.1467914 0.041015625 0.083984375 1.1057758 0.083984375 2.4277344 L 0.083984375 13.599609 C 0.083984375 14.921568 1.1467914 15.986328 2.46875 15.986328 L 45.570312 15.986328 C 46.892271 15.986328 47.957031 14.921568 47.957031 13.599609 L 47.957031 2.4277344 C 47.957031 1.1057758 46.892271 0.041015625 45.570312 0.041015625 L 2.46875 0.041015625 z M 15.808594 1.6992188 C 16.673141 1.6992188 17.356728 2.0489168 17.861328 2.7480469 C 18.369292 3.447177 18.634655 4.4116854 18.658203 5.640625 L 17.205078 5.640625 C 17.178166 5.0616579 17.039952 4.6046636 16.791016 4.2714844 C 16.54208 3.9383052 16.21618 3.7714844 15.8125 3.7714844 C 15.429004 3.7714844 15.114713 3.9151971 14.869141 4.1992188 C 14.626933 4.4832404 14.505859 4.8466442 14.505859 5.2890625 C 14.505859 5.6659373 14.606754 5.9678636 14.808594 6.1972656 C 15.010434 6.4266677 15.341867 6.6232508 15.802734 6.7871094 L 16.523438 7.0410156 C 17.324069 7.3195753 17.91121 7.7378026 18.28125 8.2949219 C 18.654654 8.8465792 18.839844 9.5804386 18.839844 10.498047 C 18.839844 11.672367 18.574481 12.602412 18.042969 13.285156 C 17.511457 13.962439 16.782521 14.300781 15.857422 14.300781 C 14.895318 14.300781 14.145662 13.930723 13.607422 13.193359 C 13.072546 12.455996 12.804688 11.424911 12.804688 10.097656 L 14.304688 10.097656 C 14.314779 10.769477 14.456574 11.293047 14.732422 11.669922 C 15.00827 12.041335 15.388089 12.228516 15.869141 12.228516 C 16.299732 12.228516 16.645811 12.084803 16.908203 11.800781 C 17.170595 11.51676 17.300781 11.137299 17.300781 10.662109 C 17.300781 10.268849 17.196307 9.9508661 16.984375 9.7050781 C 16.775807 9.4592902 16.430813 9.2513518 15.953125 9.0820312 L 15.162109 8.8027344 C 13.688678 8.2838487 12.951172 7.1525196 12.951172 5.4101562 C 12.951172 4.6673305 13.071703 4.0204074 13.310547 3.46875 C 13.549391 2.9116307 13.881366 2.477347 14.308594 2.1660156 C 14.735822 1.8546842 15.236714 1.6992188 15.808594 1.6992188 z M 30.96875 1.6992188 C 31.55745 1.6992188 32.087092 1.8844465 32.554688 2.2558594 C 33.025647 2.6272722 33.409589 3.1527958 33.708984 3.8300781 C 34.00838 4.5018985 34.198561 5.2905813 34.279297 6.1972656 L 32.710938 6.1972656 C 32.62011 5.4762877 32.421358 4.9186513 32.115234 4.5253906 C 31.812475 4.126668 31.437646 3.9277344 30.990234 3.9277344 C 30.351075 3.9277344 29.852678 4.2958393 29.496094 5.0332031 C 29.13951 5.765105 28.960937 6.757025 28.960938 8.0078125 C 28.960938 9.2476761 29.13951 10.237246 29.496094 10.974609 C 29.852678 11.706511 30.351075 12.072266 30.990234 12.072266 C 31.434282 12.072266 31.806615 11.875683 32.109375 11.482422 C 32.415499 11.089161 32.617288 10.533875 32.714844 9.8183594 L 34.279297 9.8183594 C 34.198561 10.725044 34.00838 11.51568 33.708984 12.1875 C 33.409589 12.85932 33.025647 13.38054 32.554688 13.751953 C 32.087092 14.117904 31.55745 14.300781 30.96875 14.300781 C 30.27913 14.300781 29.665193 14.047024 29.126953 13.539062 C 28.588713 13.025639 28.164957 12.298831 27.855469 11.359375 C 27.549345 10.414457 27.396484 9.2968336 27.396484 8.0078125 C 27.396484 6.7078674 27.549345 5.5878936 27.855469 4.6484375 C 28.164957 3.7035195 28.588713 2.9786648 29.126953 2.4707031 C 29.665193 1.9572794 30.27913 1.6992188 30.96875 1.6992188 z M 20.365234 1.8964844 L 23.378906 1.8964844 C 24.186266 1.8964844 24.808774 2.1866579 25.246094 2.765625 C 25.686778 3.3391302 25.90625 4.093747 25.90625 5.0332031 C 25.90625 5.7377952 25.785177 6.3204927 25.542969 6.7792969 C 25.300761 7.238101 24.972366 7.5513826 24.558594 7.7207031 L 24.558594 7.7382812 C 25.016098 7.8038247 25.401992 8.0896945 25.714844 8.5976562 C 26.027696 9.105618 26.183594 9.7936587 26.183594 10.662109 C 26.183594 11.683495 25.958588 12.515248 25.507812 13.154297 C 25.057037 13.787884 24.405237 14.103516 23.550781 14.103516 L 20.365234 14.103516 L 20.365234 1.8964844 z M 21.884766 3.8789062 L 21.884766 6.9667969 L 23.261719 6.9667969 C 23.604847 6.9667969 23.875201 6.8293409 24.070312 6.5507812 C 24.265424 6.2722216 24.363281 5.8974624 24.363281 5.4277344 C 24.363281 4.9525444 24.265424 4.5754347 24.070312 4.296875 C 23.875201 4.0183153 23.604847 3.8789063 23.261719 3.8789062 L 21.884766 3.8789062 z M 21.884766 8.8691406 L 21.884766 12.121094 L 23.333984 12.121094 C 23.7343 12.121094 24.043601 11.981685 24.265625 11.703125 C 24.487649 11.424565 24.599609 11.031399 24.599609 10.523438 C 24.599609 10.015476 24.490144 9.6133049 24.271484 9.3183594 C 24.052824 9.0179519 23.747646 8.8691406 23.357422 8.8691406 L 21.884766 8.8691406 z " />
  </g>
</svg>
