<?xml version="1.0" encoding="UTF-8" standalone="no"?>
<!-- Created with Inkscape (http://www.inkscape.org/) -->

<svg
   width="48"
   height="16"
   viewBox="0 0 48 16"
   version="1.1"
   id="svg1"
   inkscape:version="1.4.2 (ebf0e940d0, 2025-05-08)"
   sodipodi:docname="bbm-aptx-symbolic.svg"
   xmlns:inkscape="http://www.inkscape.org/namespaces/inkscape"
   xmlns:sodipodi="http://sodipodi.sourceforge.net/DTD/sodipodi-0.dtd"
   xmlns="http://www.w3.org/2000/svg"
   xmlns:svg="http://www.w3.org/2000/svg">
  <sodipodi:namedview
     id="namedview1"
     pagecolor="#ffffff"
     bordercolor="#000000"
     borderopacity="0.25"
     inkscape:showpageshadow="2"
     inkscape:pageopacity="0.0"
     inkscape:pagecheckerboard="true"
     inkscape:deskcolor="#d1d1d1"
     inkscape:document-units="px"
     inkscape:zoom="23.959117"
     inkscape:cx="23.853133"
     inkscape:cy="7.9719132"
     inkscape:window-width="2560"
     inkscape:window-height="1371"
     inkscape:window-x="0"
     inkscape:window-y="32"
     inkscape:window-maximized="1"
     inkscape:current-layer="layer1" />
  <defs
     id="defs1" />
  <g
     inkscape:label="Layer 1"
     inkscape:groupmode="layer"
     id="layer1">
    <path
       id="rect1"
       style="fill:#000000"
       d="M 2.46875 0.041015625 C 1.1467914 0.041015625 0.083984375 1.1057758 0.083984375 2.4277344 L 0.083984375 13.599609 C 0.083984375 14.921568 1.1467914 15.986328 2.46875 15.986328 L 45.570312 15.986328 C 46.892271 15.986328 47.957031 14.921568 47.957031 13.599609 L 47.957031 2.4277344 C 47.957031 1.1057758 46.892271 0.041015625 45.570312 0.041015625 L 2.46875 0.041015625 z M 31.472656 0.52539062 L 34.003906 0.52539062 L 35.201172 2.9726562 C 35.380094 3.3403348 35.556382 3.7118085 35.730469 4.0859375 C 35.904555 4.4600665 36.07489 4.8348553 36.244141 5.2089844 L 36.767578 4.0859375 C 36.9465 3.7118085 37.126789 3.3403348 37.310547 2.9726562 L 38.529297 0.52539062 L 41.003906 0.52539062 L 37.5 7.4824219 L 41.314453 14.941406 L 38.732422 14.941406 L 37.216797 11.894531 C 37.047546 11.552655 36.881212 11.214332 36.716797 10.878906 L 36.222656 9.8535156 C 36.058241 10.195392 35.891907 10.53703 35.722656 10.878906 C 35.553406 11.214332 35.381118 11.552655 35.207031 11.894531 L 33.648438 14.941406 L 31.130859 14.941406 L 35.011719 7.5683594 L 31.472656 0.52539062 z M 25.695312 0.71289062 L 27.185547 0.71289062 L 27.185547 3.0722656 L 28.275391 3.0722656 L 28.275391 4.9648438 L 27.185547 4.9648438 L 27.185547 9.0546875 C 27.185547 9.349633 27.220372 9.5532676 27.291016 9.6679688 C 27.365024 9.7772077 27.503238 9.8320314 27.705078 9.8320312 L 28.275391 9.8320312 L 28.275391 11.724609 L 27.40625 11.724609 C 26.820914 11.724609 26.388587 11.539382 26.109375 11.167969 C 25.833527 10.796556 25.695312 10.216209 25.695312 9.4296875 L 25.695312 4.9648438 L 24.777344 4.9648438 L 24.777344 3.0722656 L 25.695312 3.0722656 L 25.695312 0.71289062 z M 14.464844 2.8925781 C 15.194831 2.8925781 15.75984 3.1576905 16.160156 3.6875 C 16.560472 4.2118476 16.761719 4.9363048 16.761719 5.859375 L 16.761719 11.724609 L 15.308594 11.724609 L 15.308594 10.503906 L 15.287109 10.503906 C 15.145821 10.924477 14.952603 11.258118 14.707031 11.503906 C 14.461459 11.749694 14.135559 11.873047 13.728516 11.873047 C 13.197004 11.873047 12.758601 11.656104 12.412109 11.224609 C 12.068982 10.793115 11.896484 10.146192 11.896484 9.2832031 C 11.896484 8.6332306 11.991846 8.1257165 12.183594 7.7597656 C 12.375342 7.3883528 12.63105 7.1165862 12.947266 6.9472656 C 13.263481 6.7779451 13.606524 6.6659477 13.976562 6.6113281 C 14.464343 6.5293988 14.804888 6.4491168 15 6.3671875 C 15.195112 6.2852582 15.292969 6.1047315 15.292969 5.8261719 L 15.292969 5.7675781 C 15.292969 5.4507848 15.215291 5.1923267 15.060547 4.9902344 C 14.905803 4.7881421 14.692406 4.6875 14.419922 4.6875 C 14.144074 4.6875 13.919611 4.7904926 13.748047 4.9980469 C 13.576483 5.2056011 13.483617 5.4754146 13.466797 5.8085938 L 12.068359 5.8085938 C 12.101999 4.9182952 12.327005 4.2118476 12.744141 3.6875 C 13.161276 3.1576905 13.734856 2.8925781 14.464844 2.8925781 z M 21.486328 2.8925781 C 21.940468 2.8925781 22.338513 3.0844601 22.681641 3.4667969 C 23.028132 3.8436717 23.298486 4.3695927 23.490234 5.046875 C 23.685346 5.7241573 23.78125 6.5057885 23.78125 7.390625 C 23.78125 8.2918474 23.685889 9.0805302 23.494141 9.7578125 C 23.302393 10.435095 23.033992 10.962969 22.6875 11.339844 C 22.344372 11.716719 21.940794 11.904297 21.476562 11.904297 C 20.753303 11.904297 20.237222 11.412838 19.927734 10.429688 L 19.912109 10.429688 L 19.912109 15.148438 L 18.423828 15.148438 L 18.423828 3.0722656 L 19.890625 3.0722656 L 19.890625 4.2441406 L 19.90625 4.2441406 C 20.071086 3.7962604 20.287521 3.4602682 20.556641 3.2363281 C 20.829125 3.0069261 21.139836 2.8925781 21.486328 2.8925781 z M 21.091797 4.8417969 C 20.715029 4.8417969 20.412346 5.0747964 20.183594 5.5390625 C 19.954842 6.0033286 19.841797 6.6204895 19.841797 7.390625 C 19.841797 8.1662225 19.954842 8.7857339 20.183594 9.25 C 20.412346 9.7088041 20.715029 9.9394531 21.091797 9.9394531 C 21.451745 9.9394531 21.739782 9.7178089 21.955078 9.2753906 C 22.173738 8.8275104 22.283203 8.1989942 22.283203 7.390625 C 22.283203 6.5822558 22.173738 5.9560901 21.955078 5.5136719 C 21.739782 5.0657916 21.451745 4.8417969 21.091797 4.8417969 z M 15.302734 7.6933594 C 15.218634 7.7698267 15.079878 7.8407066 14.884766 7.90625 C 14.689654 7.9663315 14.471266 8.0278091 14.232422 8.0878906 C 13.976758 8.1534341 13.760323 8.2724831 13.582031 8.4472656 C 13.407103 8.6165862 13.320314 8.8726938 13.320312 9.2167969 C 13.320312 9.5226663 13.393 9.7646706 13.541016 9.9394531 C 13.692396 10.108774 13.893642 10.193359 14.142578 10.193359 C 14.499162 10.193359 14.781666 10.040244 14.990234 9.734375 C 15.198802 9.4230436 15.302734 9.032228 15.302734 8.5625 L 15.302734 7.6933594 z " />
  </g>
</svg>
