<?xml version="1.0" encoding="UTF-8" standalone="no"?>
<!-- Created with Inkscape (http://www.inkscape.org/) -->

<svg
   width="48"
   height="16"
   viewBox="0 0 48 16"
   version="1.1"
   id="svg1"
   inkscape:version="1.4.2 (ebf0e940d0, 2025-05-08)"
   sodipodi:docname="bbm-aac-symbolic.svg"
   xmlns:inkscape="http://www.inkscape.org/namespaces/inkscape"
   xmlns:sodipodi="http://sodipodi.sourceforge.net/DTD/sodipodi-0.dtd"
   xmlns="http://www.w3.org/2000/svg"
   xmlns:svg="http://www.w3.org/2000/svg">
  <sodipodi:namedview
     id="namedview1"
     pagecolor="#ffffff"
     bordercolor="#000000"
     borderopacity="0.25"
     inkscape:showpageshadow="2"
     inkscape:pageopacity="0.0"
     inkscape:pagecheckerboard="true"
     inkscape:deskcolor="#d1d1d1"
     inkscape:document-units="px"
     inkscape:zoom="23.959117"
     inkscape:cx="23.853133"
     inkscape:cy="7.9719132"
     inkscape:window-width="2560"
     inkscape:window-height="1371"
     inkscape:window-x="0"
     inkscape:window-y="32"
     inkscape:window-maximized="1"
     inkscape:current-layer="layer1" />
  <defs
     id="defs1" />
  <g
     inkscape:label="Layer 1"
     inkscape:groupmode="layer"
     id="layer1">
    <path
       id="rect1"
       style="fill:#000000"
       d="M 2.46875 0.041015625 C 1.1467914 0.041015625 0.083984375 1.1057758 0.083984375 2.4277344 L 0.083984375 13.599609 C 0.083984375 14.921568 1.1467914 15.986328 2.46875 15.986328 L 45.570312 15.986328 C 46.892271 15.986328 47.957031 14.921568 47.957031 13.599609 L 47.957031 2.4277344 C 47.957031 1.1057758 46.892271 0.041015625 45.570312 0.041015625 L 2.46875 0.041015625 z M 32.023438 1.6992188 C 32.612137 1.6992188 33.141779 1.8844465 33.609375 2.2558594 C 34.080335 2.6272722 34.464276 3.1527958 34.763672 3.8300781 C 35.063068 4.5018985 35.253248 5.2905813 35.333984 6.1972656 L 33.765625 6.1972656 C 33.674797 5.4762877 33.476046 4.9186513 33.169922 4.5253906 C 32.867162 4.126668 32.492334 3.9277344 32.044922 3.9277344 C 31.405762 3.9277344 30.907365 4.2958393 30.550781 5.0332031 C 30.194197 5.765105 30.015625 6.757025 30.015625 8.0078125 C 30.015625 9.2476761 30.194197 10.237246 30.550781 10.974609 C 30.907365 11.706511 31.405762 12.072266 32.044922 12.072266 C 32.48897 12.072266 32.861303 11.875683 33.164062 11.482422 C 33.470186 11.089161 33.671975 10.533875 33.769531 9.8183594 L 35.333984 9.8183594 C 35.253248 10.725044 35.063068 11.51568 34.763672 12.1875 C 34.464276 12.85932 34.080335 13.38054 33.609375 13.751953 C 33.141779 14.117904 32.612137 14.300781 32.023438 14.300781 C 31.333818 14.300781 30.71988 14.047024 30.181641 13.539062 C 29.643401 13.025639 29.219644 12.298831 28.910156 11.359375 C 28.604032 10.414457 28.451172 9.2968336 28.451172 8.0078125 C 28.451172 6.7078674 28.604032 5.5878936 28.910156 4.6484375 C 29.219644 3.7035195 29.643401 2.9786648 30.181641 2.4707031 C 30.71988 1.9572794 31.333818 1.6992188 32.023438 1.6992188 z M 15.136719 1.8964844 L 17.134766 1.8964844 L 19.773438 14.103516 L 18.052734 14.103516 L 17.529297 11.441406 L 14.71875 11.441406 L 14.171875 14.103516 L 12.498047 14.103516 L 15.136719 1.8964844 z M 23.248047 1.8964844 L 25.246094 1.8964844 L 27.884766 14.103516 L 26.164062 14.103516 L 25.638672 11.441406 L 22.828125 11.441406 L 22.283203 14.103516 L 20.607422 14.103516 L 23.248047 1.8964844 z M 16.140625 4.1582031 C 16.006065 4.9174147 15.878916 5.6191613 15.757812 6.2636719 C 15.636709 6.9081824 15.515635 7.5413997 15.394531 8.1640625 L 15.136719 9.4257812 L 17.125 9.4257812 L 16.873047 8.1640625 C 16.755307 7.5413997 16.637271 6.9081824 16.519531 6.2636719 C 16.401791 5.6191613 16.275185 4.9174147 16.140625 4.1582031 z M 24.251953 4.1582031 C 24.117393 4.9174147 23.988291 5.6191613 23.867188 6.2636719 C 23.746084 6.9081824 23.62501 7.5413997 23.503906 8.1640625 L 23.248047 9.4257812 L 25.236328 9.4257812 L 24.982422 8.1640625 C 24.864682 7.5413997 24.746646 6.9081824 24.628906 6.2636719 C 24.511166 5.6191613 24.386513 4.9174147 24.251953 4.1582031 z " />
  </g>
</svg>
