<?xml version="1.0" encoding="UTF-8" standalone="no"?>
<!-- Created with Inkscape (http://www.inkscape.org/) -->

<svg
   width="48"
   height="16"
   viewBox="0 0 48 16"
   version="1.1"
   id="svg1"
   inkscape:version="1.4.2 (ebf0e940d0, 2025-05-08)"
   sodipodi:docname="bbm-ldac-symbolic.svg"
   xmlns:inkscape="http://www.inkscape.org/namespaces/inkscape"
   xmlns:sodipodi="http://sodipodi.sourceforge.net/DTD/sodipodi-0.dtd"
   xmlns="http://www.w3.org/2000/svg"
   xmlns:svg="http://www.w3.org/2000/svg">
  <sodipodi:namedview
     id="namedview1"
     pagecolor="#ffffff"
     bordercolor="#000000"
     borderopacity="0.25"
     inkscape:showpageshadow="2"
     inkscape:pageopacity="0.0"
     inkscape:pagecheckerboard="true"
     inkscape:deskcolor="#d1d1d1"
     inkscape:document-units="px"
     inkscape:zoom="23.959117"
     inkscape:cx="23.853133"
     inkscape:cy="7.9719132"
     inkscape:window-width="2560"
     inkscape:window-height="1371"
     inkscape:window-x="0"
     inkscape:window-y="32"
     inkscape:window-maximized="1"
     inkscape:current-layer="layer1" />
  <defs
     id="defs1" />
  <g
     inkscape:label="Layer 1"
     inkscape:groupmode="layer"
     id="layer1">
    <path
       id="rect1"
       style="fill:#000000"
       d="M 2.46875 0.041015625 C 1.1467914 0.041015625 0.083984375 1.1057758 0.083984375 2.4277344 L 0.083984375 13.599609 C 0.083984375 14.921568 1.1467914 15.986328 2.46875 15.986328 L 45.570312 15.986328 C 46.892271 15.986328 47.957031 14.921568 47.957031 13.599609 L 47.957031 2.4277344 C 47.957031 1.1057758 46.892271 0.041015625 45.570312 0.041015625 L 2.46875 0.041015625 z M 34.242188 1.7832031 C 34.830887 1.7832031 35.358576 1.9684309 35.826172 2.3398438 C 36.297132 2.7112566 36.683026 3.2367802 36.982422 3.9140625 C 37.281818 4.5858828 37.471998 5.3745656 37.552734 6.28125 L 35.984375 6.28125 C 35.893547 5.5602721 35.694796 5.0026357 35.388672 4.609375 C 35.085912 4.2106524 34.711084 4.0117188 34.263672 4.0117188 C 33.624512 4.0117188 33.126115 4.3798237 32.769531 5.1171875 C 32.412947 5.8490893 32.234375 6.8410094 32.234375 8.0917969 C 32.234375 9.3316604 32.412947 10.319277 32.769531 11.056641 C 33.126115 11.788542 33.624512 12.15625 34.263672 12.15625 C 34.70772 12.15625 35.080053 11.959667 35.382812 11.566406 C 35.688936 11.173146 35.890725 10.61786 35.988281 9.9023438 L 37.552734 9.9023438 C 37.471998 10.809028 37.281818 11.597711 36.982422 12.269531 C 36.683026 12.941352 36.297132 13.462572 35.826172 13.833984 C 35.358576 14.199935 34.830887 14.384766 34.242188 14.384766 C 33.552568 14.384766 32.93863 14.129055 32.400391 13.621094 C 31.862151 13.10767 31.438394 12.382815 31.128906 11.443359 C 30.822782 10.498441 30.669922 9.380818 30.669922 8.0917969 C 30.669922 6.7918518 30.822782 5.671878 31.128906 4.7324219 C 31.438394 3.7875038 31.862151 3.0606961 32.400391 2.5527344 C 32.93863 2.0393107 33.552568 1.7832031 34.242188 1.7832031 z M 9.53125 1.9804688 L 11.085938 1.9804688 L 11.085938 12.023438 L 14.501953 12.023438 L 14.501953 14.1875 L 9.53125 14.1875 L 9.53125 1.9804688 z M 15.896484 1.9804688 L 18.582031 1.9804688 C 19.335567 1.9804688 19.987367 2.2275716 20.539062 2.7246094 C 21.090758 3.2216472 21.51701 3.9276974 21.816406 4.8398438 C 22.115802 5.7519901 22.265625 6.8308464 22.265625 8.0761719 C 22.265625 9.3269593 22.115802 10.410517 21.816406 11.328125 C 21.51701 12.240271 21.090216 12.944368 20.535156 13.441406 C 19.98346 13.938444 19.321137 14.1875 18.550781 14.1875 L 15.896484 14.1875 L 15.896484 1.9804688 z M 25.466797 1.9804688 L 27.464844 1.9804688 L 30.103516 14.1875 L 28.382812 14.1875 L 27.857422 11.525391 L 25.046875 11.525391 L 24.501953 14.1875 L 22.826172 14.1875 L 25.466797 1.9804688 z M 17.451172 4.1015625 L 17.451172 12.064453 L 18.470703 12.064453 C 19.230967 12.064453 19.792938 11.721409 20.15625 11.033203 C 20.519562 10.344997 20.701172 9.3597311 20.701172 8.0761719 C 20.701172 6.7926127 20.517066 5.8077442 20.150391 5.125 C 19.787079 4.4422558 19.233136 4.1015625 18.486328 4.1015625 L 17.451172 4.1015625 z M 26.470703 4.2402344 C 26.336143 4.999446 26.207041 5.7011926 26.085938 6.3457031 C 25.964834 6.9902137 25.84376 7.6253841 25.722656 8.2480469 L 25.466797 9.5097656 L 27.453125 9.5097656 L 27.201172 8.2480469 C 27.083432 7.6253841 26.965396 6.9902137 26.847656 6.3457031 C 26.729916 5.7011926 26.605263 4.999446 26.470703 4.2402344 z " />
  </g>
</svg>
