<?xml version="1.0" encoding="UTF-8" standalone="no"?>
<!-- Created with Inkscape (http://www.inkscape.org/) -->

<svg
   width="48"
   height="16"
   viewBox="0 0 48 16"
   version="1.1"
   id="svg1"
   inkscape:version="1.4.2 (ebf0e940d0, 2025-05-08)"
   sodipodi:docname="bbm-dsseex-symbolic.svg"
   xmlns:inkscape="http://www.inkscape.org/namespaces/inkscape"
   xmlns:sodipodi="http://sodipodi.sourceforge.net/DTD/sodipodi-0.dtd"
   xmlns="http://www.w3.org/2000/svg"
   xmlns:svg="http://www.w3.org/2000/svg">
  <sodipodi:namedview
     id="namedview1"
     pagecolor="#ffffff"
     bordercolor="#000000"
     borderopacity="0.25"
     inkscape:showpageshadow="2"
     inkscape:pageopacity="0.0"
     inkscape:pagecheckerboard="true"
     inkscape:deskcolor="#d1d1d1"
     inkscape:document-units="px"
     inkscape:zoom="23.959117"
     inkscape:cx="23.853133"
     inkscape:cy="7.9719133"
     inkscape:window-width="2560"
     inkscape:window-height="1371"
     inkscape:window-x="0"
     inkscape:window-y="32"
     inkscape:window-maximized="1"
     inkscape:current-layer="layer1" />
  <defs
     id="defs1" />
  <g
     inkscape:label="Layer 1"
     inkscape:groupmode="layer"
     id="layer1">
    <path
       id="rect1"
       style="fill:#000000"
       d="M 2.46875 0.041015625 C 1.1467914 0.041015625 0.083984375 1.1057758 0.083984375 2.4277344 L 0.083984375 13.599609 C 0.083984375 14.921568 1.1467914 15.986328 2.46875 15.986328 L 45.570312 15.986328 C 46.892271 15.986328 47.957031 14.921568 47.957031 13.599609 L 47.957031 2.4277344 C 47.957031 1.1057758 46.892271 0.041015625 45.570312 0.041015625 L 2.46875 0.041015625 z M 12.03125 1.7832031 C 12.895798 1.7832031 13.579385 2.1329011 14.083984 2.8320312 C 14.591948 3.5311614 14.859265 4.4956697 14.882812 5.7246094 L 13.429688 5.7246094 C 13.402776 5.1456423 13.264561 4.6886479 13.015625 4.3554688 C 12.766689 4.0222896 12.440789 3.8554688 12.037109 3.8554688 C 11.653614 3.8554687 11.337369 3.9972284 11.091797 4.28125 C 10.849589 4.5652716 10.728516 4.9286755 10.728516 5.3710938 C 10.728516 5.7479686 10.82941 6.0518479 11.03125 6.28125 C 11.23309 6.5106521 11.564523 6.7072351 12.025391 6.8710938 L 12.748047 7.125 C 13.548679 7.4035597 14.133866 7.8217869 14.503906 8.3789062 C 14.87731 8.9305636 15.064453 9.664423 15.064453 10.582031 C 15.064453 11.756351 14.797137 12.684443 14.265625 13.367188 C 13.734113 14.04447 13.007131 14.384766 12.082031 14.384766 C 11.119928 14.384766 10.370271 14.014708 9.8320312 13.277344 C 9.2971555 12.53998 9.0292969 11.508895 9.0292969 10.181641 L 10.527344 10.181641 C 10.537436 10.853461 10.681183 11.377031 10.957031 11.753906 C 11.232879 12.125319 11.610745 12.310547 12.091797 12.310547 C 12.522389 12.310547 12.868467 12.168787 13.130859 11.884766 C 13.393251 11.600744 13.525391 11.221284 13.525391 10.746094 C 13.525391 10.352833 13.418963 10.032897 13.207031 9.7871094 C 12.998463 9.5413214 12.655422 9.3333831 12.177734 9.1640625 L 11.384766 8.8867188 C 9.9113342 8.3678331 9.1757813 7.2365039 9.1757812 5.4941406 C 9.1757812 4.7513149 9.2943592 4.1043917 9.5332031 3.5527344 C 9.772047 2.9956151 10.105975 2.5613314 10.533203 2.25 C 10.960431 1.9386686 11.45937 1.7832031 12.03125 1.7832031 z M 1.3769531 1.9804688 L 4.0625 1.9804688 C 4.8160357 1.9804688 5.4678355 2.2275716 6.0195312 2.7246094 C 6.571227 3.2216472 6.9974791 3.9276974 7.296875 4.8398438 C 7.5962709 5.7519901 7.7460937 6.8308464 7.7460938 8.0761719 C 7.7460938 9.3269593 7.5962709 10.410517 7.296875 11.328125 C 6.9974791 12.240271 6.5687316 12.944368 6.0136719 13.441406 C 5.4619761 13.938444 4.8016057 14.1875 4.03125 14.1875 L 1.3769531 14.1875 L 1.3769531 1.9804688 z M 16.589844 1.9804688 L 21.984375 1.9804688 L 21.984375 4.1425781 L 18.144531 4.1425781 L 18.144531 6.96875 L 21.695312 6.96875 L 21.695312 9.0742188 L 18.144531 9.0742188 L 18.144531 12.023438 L 21.984375 12.023438 L 21.984375 14.1875 L 16.589844 14.1875 L 16.589844 1.9804688 z M 23.484375 1.9804688 L 28.878906 1.9804688 L 28.878906 4.1425781 L 25.039062 4.1425781 L 25.039062 6.96875 L 28.589844 6.96875 L 28.589844 9.0742188 L 25.039062 9.0742188 L 25.039062 12.023438 L 28.878906 12.023438 L 28.878906 14.1875 L 23.484375 14.1875 L 23.484375 1.9804688 z M 33.207031 1.9804688 L 38.599609 1.9804688 L 38.599609 4.1425781 L 34.759766 4.1425781 L 34.759766 6.96875 L 38.3125 6.96875 L 38.3125 9.0742188 L 34.759766 9.0742188 L 34.759766 12.023438 L 38.599609 12.023438 L 38.599609 14.1875 L 33.207031 14.1875 L 33.207031 1.9804688 z M 39.837891 1.9804688 L 41.599609 1.9804688 L 42.431641 4.0527344 C 42.556109 4.3640658 42.679677 4.6773473 42.800781 4.9941406 C 42.921885 5.310934 43.040463 5.6285192 43.158203 5.9453125 L 43.521484 4.9941406 C 43.645952 4.6773473 43.772559 4.3640658 43.900391 4.0527344 L 44.748047 1.9804688 L 46.46875 1.9804688 L 44.03125 7.8710938 L 46.685547 14.1875 L 44.888672 14.1875 L 43.833984 11.607422 C 43.716244 11.317938 43.600704 11.030115 43.486328 10.746094 L 43.142578 9.8769531 C 43.028202 10.166437 42.912662 10.45661 42.794922 10.746094 C 42.677182 11.030115 42.558604 11.317938 42.4375 11.607422 L 41.351562 14.1875 L 39.601562 14.1875 L 42.300781 7.9433594 L 39.837891 1.9804688 z M 2.9316406 4.1015625 L 2.9316406 12.064453 L 3.9511719 12.064453 C 4.7114356 12.064453 5.2734069 11.721409 5.6367188 11.033203 C 6.0000306 10.344997 6.1816406 9.3597311 6.1816406 8.0761719 C 6.1816406 6.7926127 5.9975352 5.8077442 5.6308594 5.125 C 5.2675475 4.4422558 4.7136046 4.1015625 3.9667969 4.1015625 L 2.9316406 4.1015625 z " />
  </g>
</svg>
