<?xml version="1.0" encoding="UTF-8" standalone="no"?>
<!-- Created with Inkscape (http://www.inkscape.org/) -->

<svg
   width="48"
   height="16"
   viewBox="0 0 48 16"
   version="1.1"
   id="svg1"
   inkscape:version="1.4.2 (ebf0e940d0, 2025-05-08)"
   sodipodi:docname="bbm-aptxhd-symbolic.svg"
   xmlns:inkscape="http://www.inkscape.org/namespaces/inkscape"
   xmlns:sodipodi="http://sodipodi.sourceforge.net/DTD/sodipodi-0.dtd"
   xmlns="http://www.w3.org/2000/svg"
   xmlns:svg="http://www.w3.org/2000/svg">
  <sodipodi:namedview
     id="namedview1"
     pagecolor="#ffffff"
     bordercolor="#000000"
     borderopacity="0.25"
     inkscape:showpageshadow="2"
     inkscape:pageopacity="0.0"
     inkscape:pagecheckerboard="true"
     inkscape:deskcolor="#d1d1d1"
     inkscape:document-units="px"
     inkscape:zoom="23.959117"
     inkscape:cx="23.853133"
     inkscape:cy="7.9719133"
     inkscape:window-width="2560"
     inkscape:window-height="1371"
     inkscape:window-x="0"
     inkscape:window-y="32"
     inkscape:window-maximized="1"
     inkscape:current-layer="svg1" />
  <defs
     id="defs1" />
  <path
     id="rect1"
     style="fill:#000000"
     d="M 2.46875 0.041015625 C 1.1467914 0.041015625 0.083984375 1.1057758 0.083984375 2.4277344 L 0.083984375 13.599609 C 0.083984375 14.921568 1.1467914 15.986328 2.46875 15.986328 L 45.570312 15.986328 C 46.892271 15.986328 47.957031 14.921568 47.957031 13.599609 L 47.957031 2.4277344 C 47.957031 1.1057758 46.892271 0.041015625 45.570312 0.041015625 L 2.46875 0.041015625 z M 19.544922 0.609375 L 22.076172 0.609375 L 23.273438 3.0566406 C 23.45236 3.4243192 23.628648 3.7957928 23.802734 4.1699219 C 23.976821 4.5440509 24.149109 4.9168866 24.318359 5.2910156 L 24.839844 4.1699219 C 25.018766 3.7957928 25.201008 3.4243192 25.384766 3.0566406 L 26.603516 0.609375 L 29.076172 0.609375 L 25.572266 7.5664062 L 29.388672 15.025391 L 26.806641 15.025391 L 25.289062 11.978516 C 25.119812 11.636639 24.953477 11.296363 24.789062 10.960938 L 24.296875 9.9355469 C 24.13246 10.277423 23.964172 10.619059 23.794922 10.960938 C 23.625671 11.296364 23.455336 11.636639 23.28125 11.978516 L 21.720703 15.025391 L 19.205078 15.025391 L 23.083984 7.6523438 L 19.544922 0.609375 z M 15.1875 0.671875 L 16.677734 0.671875 L 16.677734 3.03125 L 17.767578 3.03125 L 17.767578 4.9238281 L 16.677734 4.9238281 L 16.677734 9.0117188 C 16.677734 9.3066641 16.712559 9.5122521 16.783203 9.6269531 C 16.857211 9.7361922 16.995426 9.7910156 17.197266 9.7910156 L 17.767578 9.7910156 L 17.767578 11.683594 L 16.898438 11.683594 C 16.313102 11.683594 15.880775 11.496413 15.601562 11.125 C 15.325717 10.753587 15.1875 10.175193 15.1875 9.3886719 L 15.1875 4.9238281 L 14.269531 4.9238281 L 14.269531 3.03125 L 15.1875 3.03125 L 15.1875 0.671875 z M 3.9570312 2.8515625 C 4.687019 2.8515625 5.2520279 3.1166748 5.6523438 3.6464844 C 6.0526596 4.170832 6.2539063 4.893336 6.2539062 5.8164062 L 6.2539062 11.683594 L 4.8007812 11.683594 L 4.8007812 10.462891 L 4.7792969 10.462891 C 4.6380089 10.883461 4.4447906 11.21515 4.1992188 11.460938 C 3.9536469 11.706722 3.6277469 11.830078 3.2207031 11.830078 C 2.6891914 11.830078 2.2507887 11.615088 1.9042969 11.183594 C 1.561169 10.752099 1.3886719 10.105176 1.3886719 9.2421875 C 1.3886719 8.592215 1.4859865 8.0827478 1.6777344 7.7167969 C 1.8694823 7.345384 2.1232373 7.0755706 2.4394531 6.90625 C 2.755669 6.7369294 3.0987102 6.624932 3.46875 6.5703125 C 3.9565298 6.4883832 4.2970756 6.406148 4.4921875 6.3242188 C 4.6872994 6.2422894 4.7851563 6.0617628 4.7851562 5.7832031 L 4.7851562 5.7265625 C 4.7851562 5.4097692 4.7074783 5.151311 4.5527344 4.9492188 C 4.3979904 4.7471265 4.1845933 4.6445312 3.9121094 4.6445312 C 3.6362615 4.6445313 3.4117983 4.749477 3.2402344 4.9570312 C 3.0686705 5.1645855 2.9758044 5.4343989 2.9589844 5.7675781 L 1.5605469 5.7675781 C 1.5941869 4.8772796 1.8191923 4.170832 2.2363281 3.6464844 C 2.6534639 3.1166748 3.2270437 2.8515625 3.9570312 2.8515625 z M 10.978516 2.8515625 C 11.432655 2.8515625 11.8307 3.0414913 12.173828 3.4238281 C 12.52032 3.8007029 12.790674 4.3285771 12.982422 5.0058594 C 13.177534 5.6831417 13.273435 6.4647728 13.273438 7.3496094 C 13.273438 8.2508318 13.178076 9.0395146 12.986328 9.7167969 C 12.79458 10.394079 12.526176 10.921953 12.179688 11.298828 C 11.836557 11.675703 11.432982 11.863281 10.96875 11.863281 C 10.24549 11.863281 9.7294097 11.371824 9.4199219 10.388672 L 9.4042969 10.388672 L 9.4042969 15.107422 L 7.9160156 15.107422 L 7.9160156 3.03125 L 9.3828125 3.03125 L 9.3828125 4.203125 L 9.3984375 4.203125 C 9.5632734 3.7552448 9.7816623 3.4192526 10.050781 3.1953125 C 10.323265 2.9659104 10.632024 2.8515625 10.978516 2.8515625 z M 30.398438 3.78125 L 32.21875 3.78125 L 32.21875 7.1386719 L 35.960938 7.1386719 L 35.960938 3.78125 L 37.775391 3.78125 L 37.775391 12.146484 L 35.960938 12.146484 L 35.960938 8.6191406 L 32.21875 8.6191406 L 32.21875 12.146484 L 30.398438 12.146484 L 30.398438 3.78125 z M 39.810547 3.78125 L 42.955078 3.78125 C 43.837771 3.78125 44.60179 3.9504312 45.248047 4.2910156 C 45.894304 4.6316001 46.393428 5.1152057 46.744141 5.7402344 C 47.094853 6.365263 47.269531 7.1036987 47.269531 7.9570312 C 47.269531 8.8141065 47.094853 9.5567755 46.744141 10.185547 C 46.393428 10.810576 45.892384 11.294181 45.242188 11.634766 C 44.59593 11.97535 43.822317 12.146484 42.919922 12.146484 L 39.810547 12.146484 L 39.810547 3.78125 z M 10.583984 4.8007812 C 10.207217 4.8007812 9.9045332 5.0337808 9.6757812 5.4980469 C 9.4470295 5.962313 9.3339844 6.5794739 9.3339844 7.3496094 C 9.3339844 8.1252068 9.4470294 8.7447183 9.6757812 9.2089844 C 9.9045334 9.6677885 10.207217 9.8964844 10.583984 9.8964844 C 10.943932 9.8964844 11.23197 9.6748401 11.447266 9.2324219 C 11.665926 8.7845416 11.775391 8.1579786 11.775391 7.3496094 C 11.775391 6.5412402 11.665926 5.9150747 11.447266 5.4726562 C 11.23197 5.024776 10.943932 4.8007814 10.583984 4.8007812 z M 41.630859 5.234375 L 41.630859 10.691406 L 42.824219 10.691406 C 43.714793 10.691406 44.373244 10.455953 44.798828 9.984375 C 45.224412 9.5127965 45.4375 8.8365627 45.4375 7.9570312 C 45.4375 7.0774999 45.222493 6.4053358 44.792969 5.9375 C 44.367385 5.4696642 43.716608 5.234375 42.841797 5.234375 L 41.630859 5.234375 z M 4.7949219 7.6523438 C 4.7108219 7.7288111 4.572065 7.7996909 4.3769531 7.8652344 C 4.1818412 7.9253159 3.9634533 7.9848404 3.7246094 8.0449219 C 3.4689455 8.1104653 3.2525106 8.2314675 3.0742188 8.40625 C 2.8992908 8.5755706 2.8125 8.8316781 2.8125 9.1757812 C 2.8125 9.481651 2.8871405 9.7217018 3.0351562 9.8964844 C 3.1865365 10.065805 3.3858297 10.150391 3.6347656 10.150391 C 3.9913495 10.150391 4.273854 9.9972759 4.4824219 9.6914062 C 4.6909898 9.3800752 4.7949219 8.9892595 4.7949219 8.5195312 L 4.7949219 7.6523438 z " />
</svg>
