<?xml version="1.0" encoding="UTF-8" standalone="no"?>
<!-- Created with Inkscape (http://www.inkscape.org/) -->

<svg
   version="1.1"
   id="svg1"
   width="16"
   height="16"
   viewBox="0 0 16 16"
   sodipodi:docname="bbm-earbuds-bean-left-symbolic.svg"
   inkscape:version="1.4.2 (ebf0e940d0, 2025-05-08)"
   xmlns:inkscape="http://www.inkscape.org/namespaces/inkscape"
   xmlns:sodipodi="http://sodipodi.sourceforge.net/DTD/sodipodi-0.dtd"
   xmlns="http://www.w3.org/2000/svg"
   xmlns:svg="http://www.w3.org/2000/svg">
  <defs
     id="defs1">
    <inkscape:path-effect
       effect="simplify"
       id="path-effect42"
       is_visible="true"
       lpeversion="1.3"
       threshold="22.041695"
       steps="18.579096"
       smooth_angles="360"
       helper_size="10"
       simplify_individual_paths="false"
       simplify_just_coalesce="false" />
    <inkscape:path-effect
       effect="bspline"
       id="path-effect41"
       is_visible="true"
       lpeversion="1.3"
       weight="33.333333"
       steps="2"
       helper_size="0"
       apply_no_weight="true"
       apply_with_weight="true"
       only_selected="false"
       uniform="false" />
  </defs>
  <sodipodi:namedview
     id="namedview1"
     pagecolor="#ffffff"
     bordercolor="#000000"
     borderopacity="0.25"
     inkscape:showpageshadow="2"
     inkscape:pageopacity="0.0"
     inkscape:pagecheckerboard="true"
     inkscape:deskcolor="#d1d1d1"
     inkscape:zoom="72.5"
     inkscape:cx="7.9862069"
     inkscape:cy="8"
     inkscape:window-width="2560"
     inkscape:window-height="1371"
     inkscape:window-x="0"
     inkscape:window-y="32"
     inkscape:window-maximized="1"
     inkscape:current-layer="svg1" />
  <g
     id="g8">
    <path
       id="path41"
       style="display:inline;fill:#1a1a1a;fill-opacity:1;stroke-width:0.0352813"
       d="M 7.2207031,0.1015625 C 6.4683431,0.1205913 5.7224056,0.3205087 5.0722656,0.703125 3.4410356,1.6631254 2.5416081,3.6719145 3.0488281,5.4785156 c 0.36924,1.3151635 1.4963044,2.4910596 1.2089844,3.9433594 -0.33645,1.700611 -0.6075319,3.598863 0.4863281,5.007813 1.5775195,2.031922 4.9798533,1.904037 6.5468754,-0.04492 C 13.616277,11.492757 13.525399,7.1029449 11.955078,3.7441406 11.603086,2.9488479 11.194308,2.1625475 10.611328,1.5097656 9.7456964,0.54048935 8.4746341,0.0698475 7.2207031,0.1015625 Z M 5.8496094,2.2695312 h 2.6015625 a 1.7184852,1.7184852 0 0 1 1.7187501,1.7167969 1.7184852,1.7184852 0 0 1 -1.7187501,1.71875 H 5.8496094 a 1.7184852,1.7184852 0 0 1 -1.71875,-1.71875 1.7184852,1.7184852 0 0 1 1.71875,-1.7167969 z m 5.1132816,8.2949218 a 0.65511307,0.65511307 0 0 1 0.267578,0.04687 0.65511307,0.65511307 0 0 1 0.371093,0.826172 v 0.002 l -0.0098,0.02539 -0.503906,1.240234 A 0.65511307,0.65511307 0 0 1 10.23434,13.066447 0.65511307,0.65511307 0 0 1 9.8730119,12.212932 l 0.5039061,-1.240235 0.0098,-0.02539 h 0.002 a 0.65511307,0.65511307 0 0 1 0.574219,-0.382813 z M 5.34375,11.701172 a 0.75945123,0.70607381 0 0 1 0.6308594,0.302734 l 0.017578,0.02539 0.8320313,1.21875 a 0.75945123,0.70607381 0 0 1 -0.2363282,0.974609 0.75945123,0.70607381 0 0 1 -1.046875,-0.21875 l -0.8320312,-1.21875 -0.017578,-0.02539 h 0.00195 A 0.75945123,0.70607381 0 0 1 4.9453125,11.810547 0.75945123,0.70607381 0 0 1 5.34375,11.701172 Z" />
    <path
       style="display:inline;fill:#1a1a1a;fill-opacity:1;stroke-width:0.0352813"
       d="M 5.7173336,3.3605275 A 0.61713552,0.61713552 0 0 1 6.3344731,3.9776718 0.61713552,0.61713552 0 0 1 5.7173336,4.5948167 0.61713552,0.61713552 0 0 1 5.1001836,3.9776718 0.61713552,0.61713552 0 0 1 5.7173336,3.3605275 Z"
       id="path3" />
    <path
       style="display:inline;fill:#000000;fill-opacity:1;stroke-width:0.0352813"
       d="M 8.6606221,3.3605275 A 0.61713552,0.61713552 0 0 1 9.2777661,3.9776718 0.61713552,0.61713552 0 0 1 8.6606221,4.5948167 0.61713552,0.61713552 0 0 1 8.0434771,3.9776718 0.61713552,0.61713552 0 0 1 8.6606221,3.3605275 Z"
       id="path2" />
    <path
       style="display:inline;fill:#1a1a1a;fill-opacity:0.5;stroke-width:0.0352813"
       d="m 5.3442636,11.701146 a 0.75945123,0.70607381 0 0 0 -0.39933,0.109634 0.75945123,0.70607381 0 0 0 -0.25206,0.948043 l -6.3e-4,4.16e-4 0.0177,0.02591 0.83069,1.218785 a 0.75945123,0.70607381 0 0 0 1.0480295,0.21844 0.75945123,0.70607381 0 0 0 0.23498,-0.974366 l -0.8307595,-1.218785 -0.0176,-0.02591 -6.2e-4,3.45e-4 a 0.75945123,0.70607381 0 0 0 -0.63038,-0.302509 z"
       id="path6" />
    <path
       style="display:inline;fill:#1a1a1a;fill-opacity:0.5;stroke-width:0.0352813"
       d="m 10.963131,10.564087 a 0.65511307,0.65511307 0 0 0 -0.575248,0.38258 l -5.52e-4,-1.95e-4 -0.01068,0.02639 -0.5028259,1.240698 a 0.65511307,0.65511307 0 0 0 0.3610809,0.853225 0.65511307,0.65511307 0 0 0 0.853156,-0.36108 l 0.502894,-1.240698 0.01068,-0.02639 -6.23e-4,-2.59e-4 A 0.65511307,0.65511307 0 0 0 11.229872,10.6118 0.65511307,0.65511307 0 0 0 10.963127,10.56412 Z"
       id="path7" />
    <path
       style="display:inline;fill:#1a1a1a;fill-opacity:0.5;stroke-width:0.0352813"
       d="M 8.4516911,2.2686717 H 5.8502536 a 1.7184852,1.7184852 0 0 0 -1.71851,1.71851 1.7184852,1.7184852 0 0 0 1.71851,1.7184407 H 8.4516911 A 1.7184852,1.7184852 0 0 0 10.170201,3.9871817 1.7184852,1.7184852 0 0 0 8.4516911,2.2686717 Z"
       id="path8" />
  </g>
</svg>
