<?xml version="1.0" encoding="UTF-8" standalone="no"?>
<!-- Created with Inkscape (http://www.inkscape.org/) -->

<svg
   width="48"
   height="16"
   viewBox="0 0 48 16"
   version="1.1"
   id="svg1"
   inkscape:version="1.4.2 (ebf0e940d0, 2025-05-08)"
   sodipodi:docname="bbm-lc3-symbolic.svg"
   xmlns:inkscape="http://www.inkscape.org/namespaces/inkscape"
   xmlns:sodipodi="http://sodipodi.sourceforge.net/DTD/sodipodi-0.dtd"
   xmlns="http://www.w3.org/2000/svg"
   xmlns:svg="http://www.w3.org/2000/svg">
  <sodipodi:namedview
     id="namedview1"
     pagecolor="#ffffff"
     bordercolor="#000000"
     borderopacity="0.25"
     inkscape:showpageshadow="2"
     inkscape:pageopacity="0.0"
     inkscape:pagecheckerboard="true"
     inkscape:deskcolor="#d1d1d1"
     inkscape:document-units="px"
     inkscape:zoom="23.959117"
     inkscape:cx="23.853133"
     inkscape:cy="7.9719132"
     inkscape:window-width="2560"
     inkscape:window-height="1371"
     inkscape:window-x="0"
     inkscape:window-y="32"
     inkscape:window-maximized="1"
     inkscape:current-layer="layer1" />
  <defs
     id="defs1" />
  <g
     inkscape:label="Layer 1"
     inkscape:groupmode="layer"
     id="layer1">
    <path
       id="rect1"
       style="fill:#000000"
       d="M 2.46875 0.041015625 C 1.1467914 0.041015625 0.083984375 1.1057758 0.083984375 2.4277344 L 0.083984375 13.599609 C 0.083984375 14.921568 1.1467914 15.986328 2.46875 15.986328 L 45.570312 15.986328 C 46.892271 15.986328 47.957031 14.921568 47.957031 13.599609 L 47.957031 2.4277344 C 47.957031 1.1057758 46.892271 0.041015625 45.570312 0.041015625 L 2.46875 0.041015625 z M 23.080078 1.6992188 C 23.668778 1.6992188 24.19842 1.8844465 24.666016 2.2558594 C 25.136975 2.6272722 25.520917 3.1527958 25.820312 3.8300781 C 26.119708 4.5018985 26.309889 5.2905813 26.390625 6.1972656 L 24.822266 6.1972656 C 24.731438 5.4762877 24.532686 4.9186513 24.226562 4.5253906 C 23.923803 4.126668 23.548974 3.9277344 23.101562 3.9277344 C 22.462403 3.9277344 21.964006 4.2958393 21.607422 5.0332031 C 21.250838 5.765105 21.072266 6.757025 21.072266 8.0078125 C 21.072266 9.2476761 21.250838 10.237246 21.607422 10.974609 C 21.964006 11.706511 22.462403 12.072266 23.101562 12.072266 C 23.54561 12.072266 23.917943 11.875683 24.220703 11.482422 C 24.526827 11.089161 24.728616 10.533875 24.826172 9.8183594 L 26.390625 9.8183594 C 26.309889 10.725044 26.119708 11.51568 25.820312 12.1875 C 25.520917 12.85932 25.136975 13.38054 24.666016 13.751953 C 24.19842 14.117904 23.668778 14.300781 23.080078 14.300781 C 22.390458 14.300781 21.776521 14.047024 21.238281 13.539062 C 20.700041 13.025639 20.276285 12.298831 19.966797 11.359375 C 19.660673 10.414457 19.507812 9.2968336 19.507812 8.0078125 C 19.507812 6.7078674 19.660673 5.5878936 19.966797 4.6484375 C 20.276285 3.7035195 20.700041 2.9786648 21.238281 2.4707031 C 21.776521 1.9572794 22.390458 1.6992188 23.080078 1.6992188 z M 30.509766 1.6992188 C 31.024457 1.6992188 31.480001 1.8476326 31.876953 2.1425781 C 32.277269 2.4320617 32.591018 2.8322794 32.816406 3.3457031 C 33.045158 3.8536648 33.160156 4.4410635 33.160156 5.1074219 C 33.160156 5.7956281 33.025522 6.3716714 32.759766 6.8359375 C 32.49401 7.3002036 32.150426 7.6040829 31.726562 7.7460938 L 31.726562 7.7714844 C 32.251346 7.8807235 32.660457 8.2077109 32.953125 8.7539062 C 33.245793 9.3001016 33.390625 9.9356695 33.390625 10.662109 C 33.390625 11.366701 33.269009 11.992867 33.023438 12.539062 C 32.78123 13.085258 32.444264 13.517191 32.013672 13.833984 C 31.58308 14.145316 31.087178 14.300781 30.525391 14.300781 C 29.903051 14.300781 29.3784 14.108899 28.951172 13.726562 C 28.527308 13.344226 28.204988 12.834361 27.986328 12.195312 C 27.771032 11.556264 27.664062 10.847863 27.664062 10.072266 L 29.148438 10.072266 C 29.148438 10.78232 29.267015 11.337605 29.505859 11.736328 C 29.748067 12.135051 30.082538 12.333984 30.509766 12.333984 C 30.910081 12.333984 31.235439 12.169514 31.484375 11.841797 C 31.736675 11.508618 31.863281 11.069633 31.863281 10.523438 C 31.863281 10.004552 31.725609 9.5886751 31.453125 9.2773438 C 31.184005 8.9605504 30.828813 8.8027344 30.384766 8.8027344 L 29.712891 8.8027344 L 29.712891 6.9589844 L 30.384766 6.9589844 C 30.791809 6.9589844 31.114672 6.8172247 31.353516 6.5332031 C 31.595724 6.2437196 31.716797 5.852904 31.716797 5.3613281 C 31.716797 4.8369805 31.604294 4.4164027 31.378906 4.0996094 C 31.156882 3.782816 30.866349 3.625 30.509766 3.625 C 30.139726 3.625 29.842575 3.7988724 29.617188 4.1484375 C 29.3918 4.4980026 29.279297 4.9687027 29.279297 5.5585938 L 27.816406 5.5585938 C 27.816406 4.815768 27.925871 4.155139 28.144531 3.5761719 C 28.366555 2.9917428 28.678351 2.5323979 29.082031 2.1992188 C 29.485711 1.8660396 29.961434 1.6992188 30.509766 1.6992188 z M 13.677734 1.8964844 L 15.232422 1.8964844 L 15.232422 11.941406 L 18.648438 11.941406 L 18.648438 14.103516 L 13.677734 14.103516 L 13.677734 1.8964844 z " />
  </g>
</svg>
